<svg width="203" height="40" viewBox="0 0 203 40" fill="none" xmlns="http://www.w3.org/2000/svg">
<g clip-path="url(#clip0_16_64)">
<rect width="203" height="40" fill="black"/>
<path d="M41.928 14.476H46.356L49.92 21.928L51.072 24.916L52.224 21.928L55.752 14.476H60.072L51.396 31H50.64L41.928 14.476ZM62.844 14.476H66.876V31H62.844V14.476ZM64.824 11.38C64.08 11.38 63.456 11.128 62.952 10.624C62.448 10.12 62.196 9.496 62.196 8.752C62.196 8.08 62.448 7.504 62.952 7.024C63.456 6.544 64.08 6.304 64.824 6.304C65.544 6.304 66.156 6.544 66.66 7.024C67.164 7.504 67.416 8.08 67.416 8.752C67.416 9.496 67.164 10.12 66.66 10.624C66.18 11.128 65.568 11.38 64.824 11.38ZM79.5671 31.36C78.0791 31.36 76.6991 31.012 75.4271 30.316C74.1791 29.596 73.1711 28.588 72.4031 27.292C71.6591 25.972 71.2871 24.436 71.2871 22.684C71.2871 20.068 72.0191 17.98 73.4831 16.42C74.9471 14.836 76.9271 14.044 79.4231 14.044C80.8151 14.044 82.0871 14.392 83.2391 15.088C84.3911 15.76 85.1711 16.576 85.5791 17.536L85.3991 14.728V4.54H89.2151V31H85.5071L85.4351 28.084C85.0271 28.948 84.2831 29.716 83.2031 30.388C82.1231 31.036 80.9111 31.36 79.5671 31.36ZM80.2151 28.084C81.5831 28.084 82.7351 27.616 83.6711 26.68C84.6071 25.72 85.0751 24.472 85.0751 22.936V22.684C85.0751 21.652 84.8591 20.728 84.4271 19.912C83.9951 19.096 83.4071 18.46 82.6631 18.004C81.9191 17.548 81.1031 17.32 80.2151 17.32C78.6791 17.32 77.4911 17.824 76.6511 18.832C75.8111 19.816 75.3911 21.1 75.3911 22.684C75.3911 24.292 75.7991 25.6 76.6151 26.608C77.4551 27.592 78.6551 28.084 80.2151 28.084ZM102.184 31.36C100.216 31.36 98.5724 30.976 97.2524 30.208C95.9324 29.416 94.9604 28.372 94.3364 27.076C93.7124 25.756 93.4004 24.316 93.4004 22.756C93.4004 21.004 93.7604 19.468 94.4804 18.148C95.2244 16.828 96.2444 15.82 97.5404 15.124C98.8364 14.404 100.3 14.044 101.932 14.044C104.476 14.044 106.36 14.752 107.584 16.168C108.832 17.56 109.456 19.528 109.456 22.072C109.456 22.72 109.42 23.392 109.348 24.088H97.4684C97.7324 25.552 98.2484 26.608 99.0164 27.256C99.8084 27.904 100.9 28.228 102.292 28.228C103.444 28.228 104.392 28.132 105.136 27.94C105.88 27.748 106.564 27.484 107.188 27.148L108.376 29.92C107.776 30.304 106.96 30.64 105.928 30.928C104.896 31.216 103.648 31.36 102.184 31.36ZM105.676 21.388C105.7 19.9 105.376 18.856 104.704 18.256C104.032 17.632 103.072 17.32 101.824 17.32C99.3044 17.32 97.8524 18.676 97.4684 21.388H105.676ZM121.237 31.36C119.533 31.36 118.021 30.976 116.701 30.208C115.381 29.44 114.361 28.396 113.641 27.076C112.921 25.756 112.561 24.292 112.561 22.684C112.561 21.1 112.909 19.648 113.605 18.328C114.325 17.008 115.345 15.964 116.665 15.196C117.985 14.428 119.509 14.044 121.237 14.044C122.965 14.044 124.477 14.428 125.773 15.196C127.093 15.964 128.101 17.008 128.797 18.328C129.517 19.648 129.877 21.1 129.877 22.684C129.877 24.292 129.517 25.756 128.797 27.076C128.077 28.396 127.057 29.44 125.737 30.208C124.441 30.976 122.941 31.36 121.237 31.36ZM121.345 28.192C122.737 28.192 123.829 27.676 124.621 26.644C125.437 25.612 125.845 24.316 125.845 22.756C125.845 21.196 125.413 19.888 124.549 18.832C123.685 17.752 122.545 17.212 121.129 17.212C119.761 17.212 118.657 17.74 117.817 18.796C117.001 19.852 116.593 21.172 116.593 22.756C116.593 24.292 117.037 25.588 117.925 26.644C118.813 27.676 119.953 28.192 121.345 28.192ZM135.99 31.36C135.27 31.36 134.658 31.12 134.154 30.64C133.65 30.136 133.398 29.524 133.398 28.804C133.398 28.06 133.638 27.448 134.118 26.968C134.622 26.464 135.246 26.212 135.99 26.212C136.734 26.212 137.346 26.464 137.826 26.968C138.33 27.448 138.582 28.06 138.582 28.804C138.582 29.524 138.33 30.136 137.826 30.64C137.346 31.12 136.734 31.36 135.99 31.36ZM150.407 31.36C148.919 31.36 147.539 31.012 146.267 30.316C145.019 29.596 144.011 28.588 143.243 27.292C142.499 25.972 142.127 24.436 142.127 22.684C142.127 20.068 142.859 17.98 144.323 16.42C145.787 14.836 147.767 14.044 150.263 14.044C151.655 14.044 152.927 14.392 154.079 15.088C155.231 15.76 156.011 16.576 156.419 17.536L156.239 14.728V4.54H160.055V31H156.347L156.275 28.084C155.867 28.948 155.123 29.716 154.043 30.388C152.963 31.036 151.751 31.36 150.407 31.36ZM151.055 28.084C152.423 28.084 153.575 27.616 154.511 26.68C155.447 25.72 155.915 24.472 155.915 22.936V22.684C155.915 21.652 155.699 20.728 155.267 19.912C154.835 19.096 154.247 18.46 153.503 18.004C152.759 17.548 151.943 17.32 151.055 17.32C149.519 17.32 148.331 17.824 147.491 18.832C146.651 19.816 146.231 21.1 146.231 22.684C146.231 24.292 146.639 25.6 147.455 26.608C148.295 27.592 149.495 28.084 151.055 28.084ZM173.024 31.36C171.056 31.36 169.412 30.976 168.092 30.208C166.772 29.416 165.8 28.372 165.176 27.076C164.552 25.756 164.24 24.316 164.24 22.756C164.24 21.004 164.6 19.468 165.32 18.148C166.064 16.828 167.084 15.82 168.38 15.124C169.676 14.404 171.14 14.044 172.772 14.044C175.316 14.044 177.2 14.752 178.424 16.168C179.672 17.56 180.296 19.528 180.296 22.072C180.296 22.72 180.26 23.392 180.188 24.088H168.308C168.572 25.552 169.088 26.608 169.856 27.256C170.648 27.904 171.74 28.228 173.132 28.228C174.284 28.228 175.232 28.132 175.976 27.94C176.72 27.748 177.404 27.484 178.028 27.148L179.216 29.92C178.616 30.304 177.8 30.64 176.768 30.928C175.736 31.216 174.488 31.36 173.024 31.36ZM176.516 21.388C176.54 19.9 176.216 18.856 175.544 18.256C174.872 17.632 173.912 17.32 172.664 17.32C170.144 17.32 168.692 18.676 168.308 21.388H176.516ZM181.744 14.476H186.172L189.736 21.928L190.888 24.916L192.04 21.928L195.568 14.476H199.888L191.212 31H190.456L181.744 14.476Z" fill="white"/>
<mask id="path-2-inside-1_16_64" fill="white">
<path d="M10.4187 7.58134C14.6057 3.39428 21.3943 3.39429 25.5814 7.58135L30.4187 12.4187C34.6057 16.6057 34.6057 23.3943 30.4186 27.5814L25.5813 32.4187C21.3943 36.6057 14.6057 36.6057 10.4186 32.4186L5.58134 27.5813C1.39428 23.3943 1.39429 16.6057 5.58135 12.4186L10.4187 7.58134Z"/>
</mask>
<path d="M18 0L38 20L18 0ZM25.5814 32.4186C20.0523 37.9477 11.0879 37.9477 5.55881 32.4186L3.15143 30.0113C-2.37764 24.4822 -2.37764 15.5178 3.15143 9.98873L8.01127 14.8486C5.16621 17.6936 5.16621 22.3064 8.01127 25.1514L12.8486 29.9887C17.0356 34.1758 22.7363 35.2637 25.5814 32.4186ZM3.15143 30.0113C-2.37764 24.4822 -2.37764 15.5178 3.15143 9.98873L5.55881 7.58135C11.0879 2.05228 20.0523 2.05228 25.5814 7.58135C22.7363 4.73629 17.0356 5.82421 12.8486 10.0113L8.01127 14.8486C5.16621 17.6936 5.16621 22.3064 8.01127 25.1514L3.15143 30.0113ZM38 20L18 40L38 20Z" fill="white" mask="url(#path-2-inside-1_16_64)"/>
<mask id="path-4-inside-2_16_64" fill="white">
<path d="M27.2997 31.0096C24.9915 33.3178 21.2491 33.3178 18.9408 31.0096L11.8014 23.8702C9.49319 21.5619 9.4932 17.8195 11.8015 15.5113L18.3222 8.99049C20.6305 6.68223 24.3729 6.68223 26.6812 8.99048L33.8205 16.1298C36.1288 18.4381 36.1288 22.1805 33.8205 24.4888L27.2997 31.0096Z"/>
</mask>
<path d="M23.1203 35.189L7.62199 19.6907L23.1203 35.189ZM18.3223 8.99048C21.9725 5.34022 27.8908 5.34022 31.541 8.99048L36.2505 13.6999C39.9007 17.3502 39.9007 23.2684 36.2505 26.9187L31.3906 22.0588C32.3569 21.0926 32.3569 19.526 31.3906 18.5598L24.2513 11.4204C21.943 9.11215 19.2885 8.02424 18.3223 8.99048L18.3223 8.99048ZM36.2505 13.6999C39.9007 17.3502 39.9007 23.2684 36.2505 26.9187L32.1596 31.0096C28.5093 34.6598 22.5911 34.6598 18.9408 31.0096L18.9408 31.0096C19.9071 31.9758 22.5616 30.8879 24.8698 28.5796L31.3906 22.0588C32.3569 21.0926 32.3569 19.526 31.3906 18.5598L36.2505 13.6999ZM7.62199 19.6907L22.5017 4.81102L7.62199 19.6907Z" fill="white" mask="url(#path-4-inside-2_16_64)"/>
<path d="M24.5979 20.6639L15.1134 26.1398C14.6552 26.4044 14.0825 26.0737 14.0825 25.5446L14.0825 14.5928C14.0825 14.0638 14.6552 13.7331 15.1134 13.9976L24.5979 19.4735C25.0561 19.7381 25.0561 20.3994 24.5979 20.6639Z" stroke="white" stroke-width="2.47423"/>
</g>
<defs>
<clipPath id="clip0_16_64">
<rect width="203" height="40" fill="white"/>
</clipPath>
</defs>
</svg>
