<svg width="203" height="40" viewBox="0 0 203 40" fill="none" xmlns="http://www.w3.org/2000/svg">
<rect width="203" height="40" fill="white"/>
<path d="M46.641 30L41.363 14.05H44.553L47.83 24.258C48.0427 24.8573 48.2263 25.4663 48.381 26.085C48.555 26.6843 48.6807 27.158 48.758 27.506C48.8547 27.158 48.9803 26.6843 49.135 26.085C49.309 25.4663 49.483 24.8573 49.657 24.258L52.876 14.05H56.037L50.759 30H46.641ZM59.7377 30V27.158H65.3347V16.892H60.4627V14.05H68.3797V27.158H73.5127V30H59.7377ZM66.5527 11.295C65.876 11.295 65.3347 11.121 64.9287 10.773C64.5227 10.4057 64.3197 9.92233 64.3197 9.323C64.3197 8.70433 64.5227 8.221 64.9287 7.873C65.3347 7.50567 65.876 7.322 66.5527 7.322C67.2293 7.322 67.7707 7.50567 68.1767 7.873C68.5827 8.221 68.7857 8.70433 68.7857 9.323C68.7857 9.92233 68.5827 10.4057 68.1767 10.773C67.7707 11.121 67.2293 11.295 66.5527 11.295ZM82.3463 30.29C80.7417 30.29 79.456 29.7487 78.4893 28.666C77.5227 27.5833 77.0393 26.1237 77.0393 24.287V19.792C77.0393 17.936 77.5227 16.4667 78.4893 15.384C79.456 14.3013 80.7417 13.76 82.3463 13.76C83.661 13.76 84.705 14.1273 85.4783 14.862C86.2517 15.5773 86.6383 16.5633 86.6383 17.82L85.9713 17.095H86.6963L86.6093 13.383V8.83H89.7413V30H86.6383V26.955H85.9713L86.6383 26.23C86.6383 27.4867 86.2517 28.4823 85.4783 29.217C84.705 29.9323 83.661 30.29 82.3463 30.29ZM83.4193 27.564C84.4053 27.564 85.1787 27.2643 85.7393 26.665C86.3193 26.0463 86.6093 25.1957 86.6093 24.113V19.937C86.6093 18.8543 86.3193 18.0133 85.7393 17.414C85.1787 16.7953 84.4053 16.486 83.4193 16.486C82.3947 16.486 81.5923 16.7857 81.0123 17.385C80.4323 17.965 80.1423 18.8157 80.1423 19.937V24.113C80.1423 25.2343 80.4323 26.0947 81.0123 26.694C81.5923 27.274 82.3947 27.564 83.4193 27.564ZM100.866 30.29C99.5707 30.29 98.43 30.0387 97.444 29.536C96.4773 29.014 95.733 28.289 95.211 27.361C94.689 26.433 94.428 25.3503 94.428 24.113V19.937C94.428 18.6803 94.689 17.5977 95.211 16.689C95.733 15.761 96.4773 15.0457 97.444 14.543C98.43 14.021 99.5707 13.76 100.866 13.76C102.181 13.76 103.321 14.021 104.288 14.543C105.255 15.0457 105.999 15.761 106.521 16.689C107.043 17.5977 107.304 18.6803 107.304 19.937V22.779H97.444V24.113C97.444 25.2923 97.734 26.1913 98.314 26.81C98.9133 27.4287 99.7737 27.738 100.895 27.738C101.804 27.738 102.538 27.5833 103.099 27.274C103.66 26.9453 104.008 26.4717 104.143 25.853H107.246C107.014 27.2063 106.318 28.289 105.158 29.101C103.998 29.8937 102.567 30.29 100.866 30.29ZM104.288 20.894V19.908C104.288 18.748 103.998 17.849 103.418 17.211C102.838 16.573 101.987 16.254 100.866 16.254C99.764 16.254 98.9133 16.573 98.314 17.211C97.734 17.849 97.444 18.7577 97.444 19.937V20.662L104.52 20.633L104.288 20.894ZM118.255 30.261C116.94 30.261 115.799 30.0097 114.833 29.507C113.866 29.0043 113.122 28.289 112.6 27.361C112.078 26.433 111.817 25.3407 111.817 24.084V19.966C111.817 18.69 112.078 17.5977 112.6 16.689C113.122 15.761 113.866 15.0457 114.833 14.543C115.799 14.0403 116.94 13.789 118.255 13.789C119.569 13.789 120.71 14.0403 121.677 14.543C122.643 15.0457 123.388 15.761 123.91 16.689C124.432 17.5977 124.693 18.69 124.693 19.966V24.084C124.693 25.3407 124.432 26.433 123.91 27.361C123.388 28.289 122.643 29.0043 121.677 29.507C120.71 30.0097 119.569 30.261 118.255 30.261ZM118.255 27.506C119.318 27.506 120.14 27.216 120.72 26.636C121.3 26.0367 121.59 25.186 121.59 24.084V19.966C121.59 18.8447 121.3 17.994 120.72 17.414C120.14 16.834 119.318 16.544 118.255 16.544C117.211 16.544 116.389 16.834 115.79 17.414C115.21 17.994 114.92 18.8447 114.92 19.966V24.084C114.92 25.186 115.21 26.0367 115.79 26.636C116.389 27.216 117.211 27.506 118.255 27.506ZM135.643 30.29C134.87 30.29 134.251 30.0677 133.787 29.623C133.323 29.159 133.091 28.5403 133.091 27.767C133.091 26.9743 133.323 26.346 133.787 25.882C134.251 25.3987 134.87 25.157 135.643 25.157C136.436 25.157 137.055 25.3987 137.499 25.882C137.963 26.346 138.195 26.9743 138.195 27.767C138.195 28.5403 137.963 29.159 137.499 29.623C137.055 30.0677 136.436 30.29 135.643 30.29ZM151.901 30.29C150.296 30.29 149.011 29.7487 148.044 28.666C147.077 27.5833 146.594 26.1237 146.594 24.287V19.792C146.594 17.936 147.077 16.4667 148.044 15.384C149.011 14.3013 150.296 13.76 151.901 13.76C153.216 13.76 154.26 14.1273 155.033 14.862C155.806 15.5773 156.193 16.5633 156.193 17.82L155.526 17.095H156.251L156.164 13.383V8.83H159.296V30H156.193V26.955H155.526L156.193 26.23C156.193 27.4867 155.806 28.4823 155.033 29.217C154.26 29.9323 153.216 30.29 151.901 30.29ZM152.974 27.564C153.96 27.564 154.733 27.2643 155.294 26.665C155.874 26.0463 156.164 25.1957 156.164 24.113V19.937C156.164 18.8543 155.874 18.0133 155.294 17.414C154.733 16.7953 153.96 16.486 152.974 16.486C151.949 16.486 151.147 16.7857 150.567 17.385C149.987 17.965 149.697 18.8157 149.697 19.937V24.113C149.697 25.2343 149.987 26.0947 150.567 26.694C151.147 27.274 151.949 27.564 152.974 27.564ZM170.421 30.29C169.125 30.29 167.985 30.0387 166.999 29.536C166.032 29.014 165.288 28.289 164.766 27.361C164.244 26.433 163.983 25.3503 163.983 24.113V19.937C163.983 18.6803 164.244 17.5977 164.766 16.689C165.288 15.761 166.032 15.0457 166.999 14.543C167.985 14.021 169.125 13.76 170.421 13.76C171.735 13.76 172.876 14.021 173.843 14.543C174.809 15.0457 175.554 15.761 176.076 16.689C176.598 17.5977 176.859 18.6803 176.859 19.937V22.779H166.999V24.113C166.999 25.2923 167.289 26.1913 167.869 26.81C168.468 27.4287 169.328 27.738 170.45 27.738C171.358 27.738 172.093 27.5833 172.654 27.274C173.214 26.9453 173.562 26.4717 173.698 25.853H176.801C176.569 27.2063 175.873 28.289 174.713 29.101C173.553 29.8937 172.122 30.29 170.421 30.29ZM173.843 20.894V19.908C173.843 18.748 173.553 17.849 172.973 17.211C172.393 16.573 171.542 16.254 170.421 16.254C169.319 16.254 168.468 16.573 167.869 17.211C167.289 17.849 166.999 18.7577 166.999 19.937V20.662L174.075 20.633L173.843 20.894ZM185.75 30L180.472 14.05H183.662L186.939 24.258C187.152 24.8573 187.336 25.4663 187.49 26.085C187.664 26.6843 187.79 27.158 187.867 27.506C187.964 27.158 188.09 26.6843 188.244 26.085C188.418 25.4663 188.592 24.8573 188.766 24.258L191.985 14.05H195.146L189.868 30H185.75Z" fill="black"/>
<mask id="path-2-inside-1_55_246" fill="white">
<path d="M12.4187 7.58134C16.6057 3.39428 23.3943 3.39429 27.5814 7.58135L32.4187 12.4187C36.6057 16.6057 36.6057 23.3943 32.4186 27.5814L27.5813 32.4187C23.3943 36.6057 16.6057 36.6057 12.4186 32.4186L7.58134 27.5813C3.39428 23.3943 3.39429 16.6057 7.58135 12.4186L12.4187 7.58134Z"/>
</mask>
<path d="M20 0L40 20L20 0ZM27.5814 32.4186C22.0523 37.9477 13.0879 37.9477 7.55881 32.4186L5.15143 30.0113C-0.377641 24.4822 -0.377641 15.5178 5.15143 9.98873L10.0113 14.8486C7.16621 17.6936 7.16621 22.3064 10.0113 25.1514L14.8486 29.9887C19.0356 34.1758 24.7363 35.2637 27.5814 32.4186ZM5.15143 30.0113C-0.377641 24.4822 -0.377641 15.5178 5.15143 9.98873L7.55881 7.58135C13.0879 2.05228 22.0523 2.05228 27.5814 7.58135C24.7363 4.73629 19.0356 5.82421 14.8486 10.0113L10.0113 14.8486C7.16621 17.6936 7.16621 22.3064 10.0113 25.1514L5.15143 30.0113ZM40 20L20 40L40 20Z" fill="black" mask="url(#path-2-inside-1_55_246)"/>
<mask id="path-4-inside-2_55_246" fill="white">
<path d="M29.2997 31.0095C26.9915 33.3178 23.2491 33.3178 20.9408 31.0095L13.8014 23.8701C11.4932 21.5619 11.4932 17.8195 13.8015 15.5112L20.3222 8.99042C22.6305 6.68217 26.3729 6.68217 28.6812 8.99042L35.8205 16.1298C38.1288 18.438 38.1288 22.1804 35.8205 24.4887L29.2997 31.0095Z"/>
</mask>
<path d="M25.1203 35.189L9.62199 19.6907L25.1203 35.189ZM20.3223 8.99042C23.9725 5.34016 29.8908 5.34016 33.541 8.99042L38.2505 13.6999C41.9007 17.3501 41.9007 23.2684 38.2505 26.9186L33.3906 22.0588C34.3569 21.0925 34.3569 19.5259 33.3906 18.5597L26.2513 11.4203C23.943 9.11209 21.2885 8.02418 20.3223 8.99042L20.3223 8.99042ZM38.2505 13.6999C41.9007 17.3501 41.9007 23.2684 38.2505 26.9186L34.1596 31.0095C30.5093 34.6598 24.5911 34.6598 20.9408 31.0095L20.9408 31.0095C21.9071 31.9757 24.5616 30.8878 26.8698 28.5796L33.3906 22.0588C34.3569 21.0925 34.3569 19.5259 33.3906 18.5597L38.2505 13.6999ZM9.62199 19.6907L24.5017 4.81096L9.62199 19.6907Z" fill="black" mask="url(#path-4-inside-2_55_246)"/>
<path d="M26.5979 20.664L17.1134 26.1399C16.6552 26.4044 16.0825 26.0738 16.0825 25.5447V14.5929C16.0825 14.0638 16.6552 13.7332 17.1134 13.9977L26.5979 19.4736C27.0561 19.7381 27.0561 20.3995 26.5979 20.664Z" stroke="black" stroke-width="2.47423"/>
</svg>
